<svg 
 xmlns="http://www.w3.org/2000/svg"
 xmlns:xlink="http://www.w3.org/1999/xlink"
 width="26px" height="20px">
<path fill-rule="evenodd"  fill="rgb(122, 188, 255)"
 d="M25.998,-0.001 L25.998,19.999 L0.013,19.999 L0.013,-0.001 L25.998,-0.001 ZM1.150,1.166 L1.150,18.832 L24.861,18.832 L24.861,1.166 L1.150,1.166 ZM5.210,7.614 C6.556,7.614 7.646,6.581 7.646,5.307 C7.646,4.032 6.556,2.999 5.210,2.999 C3.865,2.999 2.775,4.032 2.775,5.307 C2.775,6.581 3.865,7.614 5.210,7.614 ZM2.775,16.999 L23.075,16.999 L23.075,10.999 L17.274,4.985 L8.588,12.604 L5.674,9.614 L2.775,12.604 L2.775,16.999 Z"/>
</svg>
