<svg 
 xmlns="http://www.w3.org/2000/svg"
 xmlns:xlink="http://www.w3.org/1999/xlink"
 width="34px" height="34px">
<path fill-rule="evenodd"  fill="rgb(77, 165, 255)"
 d="M24.447,15.645 L33.220,27.540 C34.140,28.787 34.264,30.408 33.537,31.773 C32.814,33.139 31.377,33.986 29.793,33.986 L4.210,33.986 C2.625,33.986 1.188,33.139 0.465,31.773 C-0.262,30.408 -0.138,28.787 0.786,27.539 L9.555,15.645 C10.753,14.022 11.387,12.109 11.387,10.116 L11.387,2.725 L9.983,2.725 C9.208,2.725 8.580,2.117 8.580,1.366 C8.580,0.615 9.208,0.007 9.983,0.007 L11.387,0.007 L22.615,0.007 L24.019,0.007 C24.794,0.007 25.423,0.615 25.423,1.366 C25.423,2.117 24.794,2.725 24.019,2.725 L22.615,2.725 L22.615,10.116 C22.615,12.109 23.249,14.022 24.447,15.645 ZM22.160,17.225 C20.623,15.138 19.808,12.679 19.808,10.116 L19.808,2.725 L14.194,2.725 L14.194,10.116 C14.194,12.679 13.380,15.138 11.842,17.225 L3.069,29.120 C2.757,29.543 2.716,30.070 2.959,30.530 C3.206,30.992 3.672,31.268 4.210,31.268 L29.793,31.268 C30.330,31.268 30.796,30.992 31.043,30.530 C31.287,30.070 31.245,29.543 30.936,29.121 L22.160,17.225 ZM27.493,29.909 L6.510,29.909 C5.547,29.909 4.987,28.855 5.546,28.097 L12.982,18.014 L21.020,18.014 L28.456,28.097 C29.015,28.855 28.455,29.909 27.493,29.909 ZM12.790,24.019 C12.015,24.019 11.387,24.628 11.387,25.378 C11.387,26.129 12.015,26.737 12.790,26.737 C13.565,26.737 14.194,26.129 14.194,25.378 C14.194,24.628 13.565,24.019 12.790,24.019 ZM15.597,18.582 C14.822,18.582 14.194,19.191 14.194,19.942 C14.194,20.692 14.822,21.301 15.597,21.301 C16.373,21.301 17.001,20.692 17.001,19.942 C17.001,19.191 16.373,18.582 15.597,18.582 ZM21.212,24.019 C20.437,24.019 19.808,24.628 19.808,25.378 C19.808,26.129 20.437,26.737 21.212,26.737 C21.987,26.737 22.615,26.129 22.615,25.378 C22.615,24.628 21.987,24.019 21.212,24.019 Z"/>
</svg>
